# xmcd
#
# Track frame offsets:
#	150
#	14522
#	32614
#	48442
#	68793
#	78283
#	100523
#	116641
#	134830
#	146953
#	163972
#	176521
#	185647
#
# Disc length: 2486 seconds
#
# Revision: 1
# Processed by: cddbd v1.5.2PL0 Copyright (c) Steve Scherf et al.
# Submitted via: audiograbber 1.83.01
#
DISCID=ba09b40d
DTITLE=Adam West - ESP: Extra Sexual Perception
DYEAR=2008
DGENRE=Rock
TTITLE0=On her satanic majesty's secret service
TTITLE1=Stag party
TTITLE2=ESP: Extra sexual perception
TTITLE3=Bright green horse
TTITLE4=Make a beeline
TTITLE5=Beyond the pillars of Hercules
TTITLE6=You're my solar flare
TTITLE7=Hot fudge saturday and sundae
TTITLE8=I already fucked you... in the future
TTITLE9=Antelopes and cantaloupes
TTITLE10=My love is non-euclidean
TTITLE11=When girls collide
TTITLE12=unnanmed
EXTD=
EXTT0=
EXTT1=
EXTT2=
EXTT3=
EXTT4=
EXTT5=
EXTT6=
EXTT7=
EXTT8=
EXTT9=
EXTT10=
EXTT11=
EXTT12=
PLAYORDER=
